<?xml version="1.0" encoding="UTF-8" standalone="no"?>
<svg
   width="231"
   height="48"
   viewBox="0 0 231 48"
   fill="none"
   version="1.1"
   id="svg19"
   sodipodi:docname="auth-logo.svg"
   inkscape:version="1.3.2 (091e20e, 2023-11-25, custom)"
   xmlns:inkscape="http://www.inkscape.org/namespaces/inkscape"
   xmlns:sodipodi="http://sodipodi.sourceforge.net/DTD/sodipodi-0.dtd"
   xmlns="http://www.w3.org/2000/svg"
   xmlns:svg="http://www.w3.org/2000/svg">
  <sodipodi:namedview
     id="namedview19"
     pagecolor="#ffffff"
     bordercolor="#000000"
     borderopacity="0.25"
     inkscape:showpageshadow="2"
     inkscape:pageopacity="0.0"
     inkscape:pagecheckerboard="0"
     inkscape:deskcolor="#d1d1d1"
     inkscape:zoom="4.952381"
     inkscape:cx="182.94231"
     inkscape:cy="49.975962"
     inkscape:window-width="1920"
     inkscape:window-height="1051"
     inkscape:window-x="-9"
     inkscape:window-y="-9"
     inkscape:window-maximized="1"
     inkscape:current-layer="svg19" />
  <defs
     id="defs19">
    <filter
       id="filter0_d_3903_56743"
       x="12.0615"
       y="9.60596"
       width="7.05273"
       height="29.7896"
       filterUnits="userSpaceOnUse"
       color-interpolation-filters="sRGB">
      <feFlood
         flood-opacity="0"
         result="BackgroundImageFix"
         id="feFlood13" />
      <feColorMatrix
         in="SourceAlpha"
         type="matrix"
         values="0 0 0 0 0 0 0 0 0 0 0 0 0 0 0 0 0 0 127 0"
         result="hardAlpha"
         id="feColorMatrix13" />
      <feOffset
         dy="0.5"
         id="feOffset13" />
      <feGaussianBlur
         stdDeviation="0.5"
         id="feGaussianBlur13" />
      <feComposite
         in2="hardAlpha"
         operator="out"
         id="feComposite13" />
      <feColorMatrix
         type="matrix"
         values="0 0 0 0 0 0 0 0 0 0 0 0 0 0 0 0 0 0 0.12 0"
         id="feColorMatrix14" />
      <feBlend
         mode="normal"
         in2="BackgroundImageFix"
         result="effect1_dropShadow_3903_56743"
         id="feBlend14" />
      <feBlend
         mode="normal"
         in="SourceGraphic"
         in2="effect1_dropShadow_3903_56743"
         result="shape"
         id="feBlend15" />
    </filter>
    <filter
       id="filter1_d_3903_56743"
       x="21.5391"
       y="19.709"
       width="7.05273"
       height="19.6843"
       filterUnits="userSpaceOnUse"
       color-interpolation-filters="sRGB">
      <feFlood
         flood-opacity="0"
         result="BackgroundImageFix"
         id="feFlood15" />
      <feColorMatrix
         in="SourceAlpha"
         type="matrix"
         values="0 0 0 0 0 0 0 0 0 0 0 0 0 0 0 0 0 0 127 0"
         result="hardAlpha"
         id="feColorMatrix15" />
      <feOffset
         dy="0.5"
         id="feOffset15" />
      <feGaussianBlur
         stdDeviation="0.5"
         id="feGaussianBlur15" />
      <feComposite
         in2="hardAlpha"
         operator="out"
         id="feComposite15" />
      <feColorMatrix
         type="matrix"
         values="0 0 0 0 0 0 0 0 0 0 0 0 0 0 0 0 0 0 0.12 0"
         id="feColorMatrix16" />
      <feBlend
         mode="normal"
         in2="BackgroundImageFix"
         result="effect1_dropShadow_3903_56743"
         id="feBlend16" />
      <feBlend
         mode="normal"
         in="SourceGraphic"
         in2="effect1_dropShadow_3903_56743"
         result="shape"
         id="feBlend17" />
    </filter>
    <filter
       id="filter2_d_3903_56743"
       x="31.0078"
       y="13.3926"
       width="7.05273"
       height="26"
       filterUnits="userSpaceOnUse"
       color-interpolation-filters="sRGB">
      <feFlood
         flood-opacity="0"
         result="BackgroundImageFix"
         id="feFlood17" />
      <feColorMatrix
         in="SourceAlpha"
         type="matrix"
         values="0 0 0 0 0 0 0 0 0 0 0 0 0 0 0 0 0 0 127 0"
         result="hardAlpha"
         id="feColorMatrix17" />
      <feOffset
         dy="0.5"
         id="feOffset17" />
      <feGaussianBlur
         stdDeviation="0.5"
         id="feGaussianBlur17" />
      <feComposite
         in2="hardAlpha"
         operator="out"
         id="feComposite17" />
      <feColorMatrix
         type="matrix"
         values="0 0 0 0 0 0 0 0 0 0 0 0 0 0 0 0 0 0 0.12 0"
         id="feColorMatrix18" />
      <feBlend
         mode="normal"
         in2="BackgroundImageFix"
         result="effect1_dropShadow_3903_56743"
         id="feBlend18" />
      <feBlend
         mode="normal"
         in="SourceGraphic"
         in2="effect1_dropShadow_3903_56743"
         result="shape"
         id="feBlend19" />
    </filter>
  </defs>
  <g
     id="g19"
     transform="matrix(1.6055722,0,0,1.6055722,57.730478,-0.92295874)">
    <path
       style="fill:#40b9e8;fill-opacity:1"
       d="M -26.751158,15.065683 V 9.4658965 h 5.710673 5.710674 v 5.5997865 5.599787 h -5.710674 -5.710673 z"
       id="path23" />
    <path
       style="mix-blend-mode:normal;fill:#0191ce;fill-opacity:1"
       d="M -13.797557,19.919504 V 9.4658965 h 3.9768064 3.9768061 V 19.919504 30.373111 H -9.8207506 -13.797557 Z M -5.8532293,4.1979304 c 4.837e-4,-0.011743 0.00287,-0.014132 0.00609,-0.00609 0.00291,0.00728 0.00255,0.015972 -7.958e-4,0.019321 -0.00335,0.00335 -0.00573,-0.0026 -0.00529,-0.013231 z"
       id="path21" />
    <path
       style="fill:#0070ba;fill-opacity:1"
       d="m -35.939662,13.533428 c 0,-7.1189364 0.0011,-10.0297192 0.0025,-6.468406 0.0014,3.561313 0.0014,9.385898 0,12.943521 -0.0014,3.557624 -0.0025,0.643822 -0.0025,-6.475115 z m 9.188504,-9.2640932 V 0.59494739 h 8.725066 c 9.451592,0 8.817171,-0.003534 9.1356979,0.0508969 1.1114657,0.1899324 2.0956775,0.90924921 2.622405,1.91659951 0.2159622,0.413021 0.3417186,0.831721 0.4051806,1.3490289 0.00844,0.068809 0.012894,0.6498086 0.015818,2.0640078 l 0.00407,1.9682418 H -16.297039 -26.751158 Z"
       id="path20" />
    <path
       style="fill:#014990;fill-opacity:1"
       d="m -32.204776,30.366512 c -0.988607,-0.05115 -1.859193,-0.425885 -2.549102,-1.09723 -0.404649,-0.39376 -0.700494,-0.833094 -0.906227,-1.345763 -0.121199,-0.302018 -0.187575,-0.556363 -0.251626,-0.964211 -0.01611,-0.102559 -0.01736,-0.927501 -0.02007,-13.236868 l -0.0029,-13.12749261 h 3.891163 3.891163 V 11.587868 22.580788 h 6.411277 6.411277 v 3.896162 3.896161 l -8.409761,-0.0019 c -4.625368,-10e-4 -8.43471,-0.0032 -8.465204,-0.0047 z"
       id="path19" />
  </g>
  <path
     d="m 79.446759,40.199718 q -1.698812,0 -3.397629,-0.270269 -1.698817,-0.231667 -3.204585,-0.733586 -1.50577,-0.540534 -2.702661,-1.31272 -0.694971,-0.463305 -0.965239,-1.119665 -0.270265,-0.656375 -0.193046,-1.274121 0.115827,-0.65636 0.501922,-1.119665 0.424704,-0.501935 1.042456,-0.617761 0.617751,-0.115813 1.35133,0.347493 1.698818,1.00384 3.590681,1.46716 1.891863,0.463306 3.976771,0.463306 3.050147,0 4.440093,-1.003839 1.389935,-1.042467 1.389935,-2.664053 0,-1.351333 -1.00384,-2.123519 -0.965241,-0.772202 -3.359027,-1.27412 l -4.247038,-0.888015 q -3.667899,-0.772185 -5.482546,-2.58684 -1.776034,-1.853252 -1.776034,-4.864786 0,-1.891866 0.77219,-3.436238 0.772189,-1.544388 2.16213,-2.664053 1.42855,-1.11968 3.359023,-1.698827 1.969083,-0.617745 4.324263,-0.617745 2.316558,0 4.401479,0.579145 2.084905,0.579133 3.745121,1.698813 0.617745,0.424707 0.8108,1.042453 0.231652,0.617761 0.11581,1.235507 -0.11581,0.579146 -0.540533,1.003839 -0.424707,0.424706 -1.081066,0.501934 -0.617761,0.07726 -1.428547,-0.386093 -1.428562,-0.8108 -2.895721,-1.158295 -1.467159,-0.347477 -3.165973,-0.347477 -1.77604,0 -3.050147,0.501917 -1.274113,0.50192 -1.969083,1.428548 -0.656359,0.888027 -0.656359,2.12352 0,1.389946 0.926627,2.239359 0.926625,0.810802 3.165977,1.274108 l 4.208423,0.888011 q 3.822349,0.810801 5.675602,2.548226 1.891852,1.737428 1.891852,4.633134 0,1.853253 -0.772185,3.359026 -0.733574,1.505774 -2.162134,2.58684 -1.389934,1.081053 -3.359013,1.660199 -1.969093,0.579149 -4.440094,0.579149 z M 96.35772,40.083904 q -1.15828,0 -1.776026,-0.694972 -0.617759,-0.694973 -0.617759,-1.930466 V 23.288787 q 0,-1.274106 0.617759,-1.930466 0.617746,-0.694973 1.776026,-0.694973 1.158292,0 1.776039,0.694973 0.65636,0.65636 0.65636,1.930466 v 14.169679 q 0,1.235493 -0.617742,1.930466 -0.617767,0.694972 -1.814657,0.694972 z m 0,-23.011236 q -1.351318,0 -2.12352,-0.656374 -0.733571,-0.694958 -0.733571,-1.891852 0,-1.235507 0.733571,-1.891866 0.772202,-0.65636 2.12352,-0.65636 1.389943,0 2.123539,0.65636 0.73357,0.656359 0.73357,1.891866 0,1.196894 -0.73357,1.891852 -0.733596,0.656374 -2.123539,0.656374 z m 21.00352,23.127065 q -4.51732,0 -7.64466,-1.698814 -3.08876,-1.698827 -4.71035,-4.826187 -1.62162,-3.127373 -1.62162,-7.413013 0,-3.243198 0.92663,-5.830038 0.96524,-2.586827 2.74128,-4.401481 1.81463,-1.853252 4.40148,-2.818479 2.58682,-1.003852 5.86863,-1.003852 2.16212,0 4.32426,0.540533 2.20075,0.501919 4.13121,1.737426 0.65636,0.424706 0.84941,1.042453 0.23165,0.61776 0.0772,1.274121 -0.15444,0.617746 -0.57916,1.081067 -0.42469,0.463305 -1.08106,0.579133 -0.61774,0.115809 -1.38993,-0.308882 -1.46716,-0.8494 -2.97295,-1.235492 -1.50576,-0.386093 -3.35902,-0.386093 -2.85708,0 -4.82617,1.15828 -1.96911,1.11968 -2.97293,3.281798 -0.96524,2.162133 -0.96524,5.289506 0,4.748962 2.27795,7.21996 2.27797,2.471015 6.75665,2.471015 1.54439,0 3.12738,-0.308882 1.58299,-0.308881 3.08874,-0.849414 l -0.96522,2.200749 v -8.223814 h -4.24705 q -0.96522,0 -1.50577,-0.501919 -0.50191,-0.501934 -0.50191,-1.351332 0,-0.888014 0.50191,-1.351336 0.54055,-0.463319 1.50577,-0.463319 h 6.37056 q 0.96526,0 1.46717,0.540533 0.54053,0.501934 0.54053,1.467161 v 9.382106 q 0,0.849397 -0.34749,1.428545 -0.30886,0.579147 -1.04245,0.849413 -1.69882,0.617747 -3.89956,1.042454 -2.20074,0.386094 -4.32425,0.386094 z m 17.95341,-0.386094 q -1.27412,0 -1.96908,-0.65636 -0.65639,-0.694973 -0.65639,-1.969094 V 15.219401 q 0,-1.274107 0.65639,-1.930466 0.69496,-0.694973 1.96908,-0.694973 h 13.78358 q 0.96521,0 1.46713,0.501917 0.54054,0.501936 0.54054,1.428563 0,0.965226 -0.54054,1.505758 -0.50193,0.501935 -1.46713,0.501935 h -11.66006 v 7.490225 h 10.81065 q 1.00385,0 1.50575,0.501934 0.5019,0.50192 0.5019,1.467159 0,0.965226 -0.5019,1.467146 -0.5019,0.501934 -1.50575,0.501934 h -10.81065 v 7.914933 h 11.66006 q 0.96521,0 1.46713,0.50192 0.54054,0.501933 0.54054,1.467159 0,0.965239 -0.54054,1.467159 -0.50193,0.501935 -1.46713,0.501935 z m 22.8954,0.308867 q -1.19689,0 -1.85325,-0.656362 -0.61777,-0.694974 -0.61777,-1.891867 V 15.103575 q 0,-1.235494 0.65635,-1.853254 0.6564,-0.656359 1.85328,-0.656359 h 9.30488 q 4.4787,0 6.9111,2.162133 2.43237,2.123519 2.43237,5.984465 0,2.509614 -1.11966,4.324253 -1.08107,1.814654 -3.16596,2.779894 -2.08493,0.965227 -5.05785,0.965227 l 0.34748,-0.579134 h 1.27409 q 1.58302,0 2.74129,0.772186 1.19691,0.772186 2.08491,2.432401 l 2.8957,5.366705 q 0.46333,0.8108 0.42472,1.582986 -0.0385,0.772201 -0.57913,1.274121 -0.54054,0.463307 -1.58301,0.463307 -1.04244,0 -1.69881,-0.42471 -0.65636,-0.463304 -1.15827,-1.38993 l -3.89958,-7.18136 q -0.69498,-1.312719 -1.66019,-1.737428 -0.92661,-0.463319 -2.39378,-0.463319 h -3.66792 v 8.648518 q 0,1.196893 -0.61774,1.891867 -0.61775,0.656362 -1.85325,0.656362 z m 2.47099,-14.86464 h 6.02309 q 2.66405,0 4.01538,-1.081067 1.38994,-1.119665 1.38994,-3.320412 0,-2.162119 -1.38994,-3.243186 -1.35133,-1.119679 -4.01538,-1.119679 h -6.02309 z m 33.55171,14.941867 q -3.93817,0 -6.91112,-1.737427 -2.9343,-1.737426 -4.55589,-4.8648 -1.62161,-3.165975 -1.62161,-7.413014 0,-3.204586 0.92664,-5.752811 0.92661,-2.586827 2.62543,-4.401481 1.73743,-1.853252 4.13121,-2.818479 2.43241,-1.003852 5.40534,-1.003852 3.97677,0 6.91109,1.737425 2.93433,1.698814 4.5559,4.826189 1.62161,3.127358 1.62161,7.374411 0,3.204571 -0.92663,5.791413 -0.92663,2.586825 -2.66404,4.440079 -1.69882,1.853267 -4.13122,2.857106 -2.39379,0.965241 -5.36671,0.965241 z m 0,-4.247039 q 2.50961,0 4.24703,-1.158296 1.77603,-1.15828 2.70265,-3.359011 0.96524,-2.200748 0.96524,-5.250895 0,-4.633132 -2.0849,-7.181358 -2.0463,-2.548227 -5.83002,-2.548227 -2.47102,0 -4.24706,1.158294 -1.77603,1.119667 -2.74125,3.320413 -0.92665,2.162119 -0.92665,5.250878 0,4.594536 2.08491,7.181361 2.08494,2.586841 5.83005,2.586841 z"
     id="text1"
     style="font-size:25.8371px;font-family:Nunito;-inkscape-font-specification:'Nunito, @wght=700';font-variation-settings:'wght' 700;fill:#ffffff;fill-opacity:1;stroke:#ffffff;stroke-width:0;stroke-linecap:round;paint-order:stroke markers fill"
     aria-label="SiGERO" />
</svg>
