<?xml version="1.0" encoding="UTF-8" standalone="no"?>
<svg
   width="154"
   height="32"
   viewBox="0 0 154 32"
   fill="none"
   version="1.1"
   id="svg19"
   sodipodi:docname="logo.svg"
   inkscape:version="1.3.2 (091e20e, 2023-11-25, custom)"
   xmlns:inkscape="http://www.inkscape.org/namespaces/inkscape"
   xmlns:sodipodi="http://sodipodi.sourceforge.net/DTD/sodipodi-0.dtd"
   xmlns="http://www.w3.org/2000/svg"
   xmlns:svg="http://www.w3.org/2000/svg">
  <sodipodi:namedview
     id="namedview19"
     pagecolor="#ffffff"
     bordercolor="#000000"
     borderopacity="0.25"
     inkscape:showpageshadow="2"
     inkscape:pageopacity="0.0"
     inkscape:pagecheckerboard="0"
     inkscape:deskcolor="#d1d1d1"
     inkscape:zoom="2.8284271"
     inkscape:cx="45.785164"
     inkscape:cy="-10.783378"
     inkscape:window-width="1920"
     inkscape:window-height="1051"
     inkscape:window-x="-9"
     inkscape:window-y="-9"
     inkscape:window-maximized="1"
     inkscape:current-layer="svg19" />
  <defs
     id="defs19">
    <filter
       id="filter0_d_1624_24907"
       x="7.42383"
       y="6.2373"
       width="5.36841"
       height="20.5263"
       filterUnits="userSpaceOnUse"
       color-interpolation-filters="sRGB">
      <feFlood
         flood-opacity="0"
         result="BackgroundImageFix"
         id="feFlood13" />
      <feColorMatrix
         in="SourceAlpha"
         type="matrix"
         values="0 0 0 0 0 0 0 0 0 0 0 0 0 0 0 0 0 0 127 0"
         result="hardAlpha"
         id="feColorMatrix13" />
      <feOffset
         dy="0.5"
         id="feOffset13" />
      <feGaussianBlur
         stdDeviation="0.5"
         id="feGaussianBlur13" />
      <feComposite
         in2="hardAlpha"
         operator="out"
         id="feComposite13" />
      <feColorMatrix
         type="matrix"
         values="0 0 0 0 0 0 0 0 0 0 0 0 0 0 0 0 0 0 0.12 0"
         id="feColorMatrix14" />
      <feBlend
         mode="normal"
         in2="BackgroundImageFix"
         result="effect1_dropShadow_1624_24907"
         id="feBlend14" />
      <feBlend
         mode="normal"
         in="SourceGraphic"
         in2="effect1_dropShadow_1624_24907"
         result="shape"
         id="feBlend15" />
    </filter>
    <filter
       id="filter1_d_1624_24907"
       x="13.7422"
       y="12.9727"
       width="5.36841"
       height="13.7895"
       filterUnits="userSpaceOnUse"
       color-interpolation-filters="sRGB">
      <feFlood
         flood-opacity="0"
         result="BackgroundImageFix"
         id="feFlood15" />
      <feColorMatrix
         in="SourceAlpha"
         type="matrix"
         values="0 0 0 0 0 0 0 0 0 0 0 0 0 0 0 0 0 0 127 0"
         result="hardAlpha"
         id="feColorMatrix15" />
      <feOffset
         dy="0.5"
         id="feOffset15" />
      <feGaussianBlur
         stdDeviation="0.5"
         id="feGaussianBlur15" />
      <feComposite
         in2="hardAlpha"
         operator="out"
         id="feComposite15" />
      <feColorMatrix
         type="matrix"
         values="0 0 0 0 0 0 0 0 0 0 0 0 0 0 0 0 0 0 0.12 0"
         id="feColorMatrix16" />
      <feBlend
         mode="normal"
         in2="BackgroundImageFix"
         result="effect1_dropShadow_1624_24907"
         id="feBlend16" />
      <feBlend
         mode="normal"
         in="SourceGraphic"
         in2="effect1_dropShadow_1624_24907"
         result="shape"
         id="feBlend17" />
    </filter>
    <filter
       id="filter2_d_1624_24907"
       x="20.0547"
       y="8.76172"
       width="5.36841"
       height="18"
       filterUnits="userSpaceOnUse"
       color-interpolation-filters="sRGB">
      <feFlood
         flood-opacity="0"
         result="BackgroundImageFix"
         id="feFlood17" />
      <feColorMatrix
         in="SourceAlpha"
         type="matrix"
         values="0 0 0 0 0 0 0 0 0 0 0 0 0 0 0 0 0 0 127 0"
         result="hardAlpha"
         id="feColorMatrix17" />
      <feOffset
         dy="0.5"
         id="feOffset17" />
      <feGaussianBlur
         stdDeviation="0.5"
         id="feGaussianBlur17" />
      <feComposite
         in2="hardAlpha"
         operator="out"
         id="feComposite17" />
      <feColorMatrix
         type="matrix"
         values="0 0 0 0 0 0 0 0 0 0 0 0 0 0 0 0 0 0 0.12 0"
         id="feColorMatrix18" />
      <feBlend
         mode="normal"
         in2="BackgroundImageFix"
         result="effect1_dropShadow_1624_24907"
         id="feBlend18" />
      <feBlend
         mode="normal"
         in="SourceGraphic"
         in2="effect1_dropShadow_1624_24907"
         result="shape"
         id="feBlend19" />
    </filter>
  </defs>
  <g
     id="g19"
     transform="matrix(1.0744342,0,0,1.0744342,38.625748,-0.62758047)">
    <path
       style="fill:#40b9e8;fill-opacity:1"
       d="M -26.751158,15.065683 V 9.4658965 h 5.710673 5.710674 v 5.5997865 5.599787 h -5.710674 -5.710673 z"
       id="path23" />
    <path
       style="mix-blend-mode:normal;fill:#0191ce;fill-opacity:1"
       d="M -13.797557,19.919504 V 9.4658965 h 3.9768064 3.9768061 V 19.919504 30.373111 H -9.8207506 -13.797557 Z M -5.8532293,4.1979304 c 4.837e-4,-0.011743 0.00287,-0.014132 0.00609,-0.00609 0.00291,0.00728 0.00255,0.015972 -7.958e-4,0.019321 -0.00335,0.00335 -0.00573,-0.0026 -0.00529,-0.013231 z"
       id="path21" />
    <path
       style="fill:#0070ba;fill-opacity:1"
       d="m -35.939662,13.533428 c 0,-7.1189364 0.0011,-10.0297192 0.0025,-6.468406 0.0014,3.561313 0.0014,9.385898 0,12.943521 -0.0014,3.557624 -0.0025,0.643822 -0.0025,-6.475115 z m 9.188504,-9.2640932 V 0.59494739 h 8.725066 c 9.451592,0 8.817171,-0.003534 9.1356979,0.0508969 1.1114657,0.1899324 2.0956775,0.90924921 2.622405,1.91659951 0.2159622,0.413021 0.3417186,0.831721 0.4051806,1.3490289 0.00844,0.068809 0.012894,0.6498086 0.015818,2.0640078 l 0.00407,1.9682418 H -16.297039 -26.751158 Z"
       id="path20" />
    <path
       style="fill:#014990;fill-opacity:1"
       d="m -32.204776,30.366512 c -0.988607,-0.05115 -1.859193,-0.425885 -2.549102,-1.09723 -0.404649,-0.39376 -0.700494,-0.833094 -0.906227,-1.345763 -0.121199,-0.302018 -0.187575,-0.556363 -0.251626,-0.964211 -0.01611,-0.102559 -0.01736,-0.927501 -0.02007,-13.236868 l -0.0029,-13.12749261 h 3.891163 3.891163 V 11.587868 22.580788 h 6.411277 6.411277 v 3.896162 3.896161 l -8.409761,-0.0019 c -4.625368,-10e-4 -8.43471,-0.0032 -8.465204,-0.0047 z"
       id="path19" />
  </g>
  <path
     d="m 53.158085,26.891337 q -1.136831,0 -2.273663,-0.18086 -1.136832,-0.155022 -2.144479,-0.490905 -1.007647,-0.361719 -1.808597,-0.878461 -0.465068,-0.310045 -0.645928,-0.749276 -0.180859,-0.439231 -0.129185,-0.852624 0.07751,-0.439231 0.335882,-0.749276 0.284208,-0.335882 0.697602,-0.413394 0.413393,-0.07751 0.904298,0.232534 1.136833,0.671765 2.40285,0.98181 1.266018,0.310045 2.66122,0.310045 2.04113,0 2.97127,-0.671764 0.93013,-0.697602 0.93013,-1.78276 0,-0.904299 -0.67176,-1.421041 -0.64593,-0.516742 -2.24783,-0.852624 l -2.842079,-0.594253 q -2.454525,-0.516742 -3.668869,-1.731085 -1.188506,-1.240181 -1.188506,-3.255474 0,-1.266018 0.516742,-2.299502 0.516742,-1.033485 1.446877,-1.7827595 0.955973,-0.749276 2.247828,-1.136833 1.317692,-0.413393 2.893757,-0.413393 1.55022,0 2.94543,0.387556 1.3952,0.387557 2.5062,1.136832 0.41339,0.284209 0.54258,0.6976025 0.15502,0.413394 0.0775,0.826786 -0.0775,0.387557 -0.36172,0.671766 -0.28421,0.284207 -0.72344,0.335883 -0.4134,0.05167 -0.95597,-0.258371 -0.95598,-0.542579 -1.93779,-0.775114 -0.98181,-0.232534 -2.11864,-0.232534 -1.18851,0 -2.041131,0.335883 -0.852624,0.335882 -1.317692,0.955973 -0.43923,0.594253 -0.43923,1.42104 0,0.930136 0.62009,1.498552 0.62009,0.542579 2.118643,0.852623 l 2.81624,0.594254 q 2.55788,0.54258 3.79806,1.705248 1.26601,1.162669 1.26601,3.100452 0,1.240181 -0.51674,2.247828 -0.4909,1.007646 -1.44688,1.731085 -0.93013,0.723439 -2.24782,1.110995 -1.3177,0.387557 -2.97127,0.387557 z m 11.31666,-0.07751 q -0.77511,0 -1.1885,-0.465068 -0.4134,-0.465068 -0.4134,-1.291854 v -9.482214 q 0,-0.852625 0.4134,-1.291855 0.41339,-0.465068 1.1885,-0.465068 0.77512,0 1.18851,0.465068 0.43923,0.43923 0.43923,1.291855 v 9.482214 q 0,0.826786 -0.41339,1.291854 -0.4134,0.465068 -1.21435,0.465068 z m 0,-15.39891 q -0.90429,0 -1.42104,-0.439232 -0.4909,-0.465067 -0.4909,-1.2660165 0,-0.826788 0.4909,-1.266018 0.51675,-0.439231 1.42104,-0.439231 0.93014,0 1.42105,0.439231 0.4909,0.43923 0.4909,1.266018 0,0.8009495 -0.4909,1.2660165 -0.49091,0.439232 -1.42105,0.439232 z m 14.05536,15.476421 q -3.02294,0 -5.11574,-1.136832 -2.06697,-1.136833 -3.15213,-3.229638 -1.08516,-2.092805 -1.08516,-4.960722 0,-2.170316 0.62009,-3.901402 0.64593,-1.731085 1.83444,-2.94543 1.21434,-1.2401795 2.94543,-1.8861075 1.73108,-0.671764 3.92724,-0.671764 1.44687,0 2.89375,0.361719 1.47272,0.335882 2.76457,1.162669 0.43923,0.284209 0.56842,0.6976015 0.15502,0.413394 0.0517,0.852624 -0.10335,0.413394 -0.38756,0.72344 -0.28421,0.310045 -0.72344,0.387556 -0.41339,0.07751 -0.93013,-0.206697 -0.98181,-0.568416 -1.98946,-0.826787 -1.00765,-0.258371 -2.24783,-0.258371 -1.91194,0 -3.22963,0.775113 -1.3177,0.749276 -1.98946,2.196154 -0.64593,1.446877 -0.64593,3.539682 0,3.177962 1.52439,4.831537 1.52439,1.653574 4.52149,1.653574 1.03349,0 2.09281,-0.206697 1.05932,-0.206697 2.06696,-0.568416 l -0.64592,1.472715 v -5.503301 h -2.84208 q -0.64593,0 -1.00765,-0.335883 -0.33588,-0.335883 -0.33588,-0.904297 0,-0.594253 0.33588,-0.904299 0.36172,-0.310045 1.00765,-0.310045 h 4.26312 q 0.64593,0 0.98181,0.36172 0.36172,0.335882 0.36172,0.981809 v 6.278414 q 0,0.568417 -0.23254,0.955973 -0.20669,0.387557 -0.6976,0.568416 -1.13683,0.413394 -2.60955,0.697602 -1.47271,0.258371 -2.89375,0.258371 z m 12.01426,-0.258371 q -0.85263,0 -1.31769,-0.439231 -0.43924,-0.465068 -0.43924,-1.317692 v -14.70131 q 0,-0.8526235 0.43924,-1.2918545 0.46506,-0.465067 1.31769,-0.465067 h 9.223838 q 0.645927,0 0.981797,0.335882 0.36173,0.335882 0.36173,0.955973 0,0.6459265 -0.36173,1.0076455 -0.33588,0.335883 -0.981797,0.335883 h -7.802798 v 5.012397 h 7.23438 q 0.671768,0 1.007635,0.335883 0.33588,0.335882 0.33588,0.981809 0,0.645928 -0.33588,0.981809 -0.335867,0.335883 -1.007635,0.335883 h -7.23438 v 5.296605 h 7.802798 q 0.645927,0 0.981797,0.335882 0.36173,0.335882 0.36173,0.98181 0,0.645927 -0.36173,0.98181 -0.33588,0.335882 -0.981797,0.335882 z m 15.321395,0.206697 q -0.80095,0 -1.24018,-0.439231 -0.4134,-0.465068 -0.4134,-1.266018 V 10.097224 q 0,-0.8267875 0.43923,-1.2401815 0.43924,-0.43923 1.24019,-0.43923 h 6.22674 q 2.9971,0 4.62484,1.446877 1.62773,1.4210415 1.62773,4.0047515 0,1.679411 -0.74927,2.893754 -0.72344,1.214344 -2.11864,1.86027 -1.39521,0.645928 -3.38466,0.645928 l 0.23253,-0.387557 h 0.85262 q 1.05933,0 1.83444,0.516742 0.80095,0.516742 1.3952,1.627737 l 1.93778,3.591357 q 0.31005,0.542579 0.28421,1.059321 -0.0258,0.516742 -0.38755,0.852625 -0.36172,0.310045 -1.05933,0.310045 -0.6976,0 -1.13683,-0.284208 -0.43923,-0.310046 -0.77511,-0.930136 l -2.60955,-4.8057 q -0.46507,-0.878462 -1.11099,-1.16267 -0.62009,-0.310045 -1.6019,-0.310045 h -2.45453 v 5.78751 q 0,0.80095 -0.41339,1.266018 -0.41339,0.439231 -1.24018,0.439232 z m 1.65357,-9.947282 h 4.03059 q 1.78276,0 2.68706,-0.723439 0.93013,-0.749276 0.93013,-2.221991 0,-1.446877 -0.93013,-2.170316 -0.9043,-0.749276 -2.68706,-0.749276 h -4.03059 z m 22.45249,9.998956 q -2.63539,0 -4.62485,-1.16267 -1.96361,-1.162669 -3.04877,-3.255474 -1.08516,-2.118642 -1.08516,-4.960722 0,-2.144479 0.62009,-3.849728 0.62009,-1.731085 1.75692,-2.94543 1.16267,-1.2401795 2.76457,-1.8861075 1.62774,-0.671764 3.6172,-0.671764 2.66122,0 4.62484,1.162669 1.96362,1.1368315 3.04877,3.2296375 1.08516,2.092805 1.08516,4.934886 0,2.144478 -0.62009,3.875564 -0.62009,1.731085 -1.78276,2.971266 -1.13683,1.240181 -2.76457,1.911945 -1.6019,0.645928 -3.59135,0.645928 z m 0,-2.842081 q 1.67941,0 2.84208,-0.775113 1.1885,-0.775113 1.80859,-2.247828 0.64593,-1.472714 0.64593,-3.513844 0,-3.100452 -1.3952,-4.8057 -1.36937,-1.705249 -3.9014,-1.705249 -1.65358,0 -2.84209,0.775113 -1.1885,0.749276 -1.83443,2.22199 -0.62009,1.446878 -0.62009,3.513846 0,3.074614 1.3952,4.805699 1.39521,1.731086 3.90141,1.731086 z"
     id="text1"
     style="font-size:25.8371px;font-family:Nunito;-inkscape-font-specification:'Nunito, @wght=700';font-variation-settings:'wght' 700;fill:#000000;fill-opacity:1;stroke:#ffffff;stroke-width:0;stroke-linecap:round;paint-order:stroke markers fill"
     aria-label="SiGERO" />
</svg>
