<?xml version="1.0" encoding="UTF-8" standalone="no"?>
<svg
   width="154"
   height="32"
   viewBox="0 0 154 32"
   fill="none"
   version="1.1"
   id="svg19"
   sodipodi:docname="logo.svg"
   inkscape:version="1.3.2 (091e20e, 2023-11-25, custom)"
   xmlns:inkscape="http://www.inkscape.org/namespaces/inkscape"
   xmlns:sodipodi="http://sodipodi.sourceforge.net/DTD/sodipodi-0.dtd"
   xmlns="http://www.w3.org/2000/svg"
   xmlns:svg="http://www.w3.org/2000/svg">
  <path
     d="m 53.638686,26.857534 q -1.214343,0 -2.377013,-0.206697 -1.162669,-0.206697 -2.170316,-0.594253 -0.98181,-0.387557 -1.78276,-0.98181 -0.310045,-0.232534 -0.439231,-0.516742 -0.103348,-0.310045 -0.05167,-0.594253 0.07751,-0.310045 0.258371,-0.516742 0.206697,-0.206697 0.490905,-0.232534 0.284208,-0.02584 0.62009,0.18086 1.16267,0.826787 2.480362,1.214343 1.317692,0.36172 2.971266,0.36172 2.325339,0 3.436334,-0.852625 1.136833,-0.878461 1.136833,-2.299501 0,-1.16267 -0.826787,-1.808597 -0.80095,-0.671765 -2.712896,-1.059321 l -2.687058,-0.54258 q -2.428687,-0.516741 -3.643031,-1.679411 -1.188507,-1.188507 -1.188507,-3.152126 0,-1.214344 0.490905,-2.196153 0.490905,-1.007647 1.369366,-1.705249 0.878462,-0.7234388 2.092805,-1.1109953 1.214344,-0.3875564 2.687059,-0.3875564 1.627737,0 3.02294,0.4650677 1.421041,0.4392307 2.557873,1.3435292 0.284208,0.2325338 0.387557,0.5425788 0.103348,0.284208 0.02584,0.568416 -0.07751,0.258371 -0.284208,0.439231 -0.18086,0.18086 -0.490905,0.206697 -0.284208,0.02584 -0.645928,-0.206697 -1.033484,-0.775113 -2.144479,-1.110995 -1.110995,-0.36172 -2.454524,-0.36172 -1.369367,0 -2.377013,0.413394 -0.98181,0.413394 -1.550226,1.214344 -0.542579,0.775113 -0.542579,1.808597 0,1.24018 0.749275,1.963619 0.775113,0.723439 2.506199,1.059321 l 2.687058,0.568416 q 2.609547,0.54258 3.849728,1.653575 1.266018,1.085158 1.266018,2.971266 0,1.136833 -0.465068,2.092805 -0.465068,0.955973 -1.343529,1.653575 -0.878461,0.671764 -2.118642,1.033484 -1.240181,0.361719 -2.790407,0.361719 z m 10.748227,-0.103349 q -0.516742,0 -0.775113,-0.284208 -0.258371,-0.310045 -0.258371,-0.852624 V 15.04998 q 0,-0.542579 0.258371,-0.826788 0.258371,-0.284208 0.775113,-0.284208 0.490905,0 0.775113,0.284208 0.284208,0.284209 0.284208,0.826788 v 10.567373 q 0,0.542579 -0.284208,0.852624 -0.258371,0.284208 -0.775113,0.284208 z m 0,-15.708956 q -0.645927,0 -1.007647,-0.335882 -0.361719,-0.361719 -0.361719,-0.9559727 0,-0.6200904 0.361719,-0.9301356 0.36172,-0.3358823 1.007647,-0.3358823 0.671765,0 1.007647,0.3358823 0.361719,0.3100452 0.361719,0.9301356 0,0.5942537 -0.361719,0.9559727 -0.335882,0.335882 -1.007647,0.335882 z m 13.564486,15.812305 q -2.919592,0 -4.934886,-1.110995 -1.989456,-1.110996 -3.02294,-3.203801 -1.033484,-2.092805 -1.033484,-5.012397 0,-2.170316 0.568416,-3.901402 0.594253,-1.731085 1.705248,-2.919592 1.136833,-1.2143437 2.738733,-1.8602712 1.627737,-0.6717645 3.668868,-0.6717645 1.627737,0 3.152126,0.4650677 1.524389,0.4392307 2.712895,1.42104 0.310046,0.232534 0.387557,0.516742 0.07751,0.284209 -0.02584,0.568417 -0.07751,0.284208 -0.284208,0.490905 -0.18086,0.180859 -0.490905,0.206696 -0.284208,0.02584 -0.594253,-0.180859 -1.059322,-0.826788 -2.247828,-1.188507 -1.188507,-0.387556 -2.635384,-0.387556 -2.066968,0 -3.513846,0.878461 -1.42104,0.878461 -2.170316,2.532036 -0.723439,1.653574 -0.723439,4.030587 0,3.617194 1.679412,5.529139 1.705248,1.911946 5.115745,1.911946 1.240181,0 2.428688,-0.232534 1.188506,-0.258371 2.247827,-0.697602 l -0.465068,1.214344 v -6.433438 h -3.694705 q -0.465068,0 -0.697601,-0.232534 -0.232534,-0.232534 -0.232534,-0.62009 0,-0.413394 0.232534,-0.620091 0.232533,-0.206696 0.697601,-0.206696 h 4.624841 q 0.439231,0 0.671765,0.232534 0.232533,0.232533 0.232533,0.671764 v 6.743483 q 0,0.387556 -0.129185,0.645927 -0.129186,0.258371 -0.439231,0.387557 -1.085158,0.439231 -2.609547,0.749276 -1.498551,0.284208 -2.919592,0.284208 z M 89.552251,26.625 q -0.568416,0 -0.878461,-0.284208 -0.284208,-0.310045 -0.284208,-0.878461 V 9.5725146 q 0,-0.5684162 0.284208,-0.8526243 0.310045,-0.3100451 0.878461,-0.3100451 h 9.611401 q 0.439231,0 0.671765,0.2325338 0.232533,0.2325339 0.232533,0.6459275 0,0.4392307 -0.232533,0.6717646 -0.232534,0.2325339 -0.671765,0.2325339 H 90.45655 v 6.304252 h 8.164523 q 0.439231,0 0.671765,0.232534 0.232533,0.206697 0.232533,0.645928 0,0.43923 -0.232533,0.671764 -0.232534,0.232534 -0.671765,0.232534 H 90.45655 v 6.562623 h 8.707102 q 0.439231,0 0.671765,0.232534 0.232533,0.232534 0.232533,0.645928 0,0.43923 -0.232533,0.671764 Q 99.602883,26.625 99.163652,26.625 Z m 14.959689,0.18086 q -0.51675,0 -0.80095,-0.284208 -0.25837,-0.310046 -0.25837,-0.826788 V 9.4950033 q 0,-0.5425791 0.2842,-0.8009501 0.28421,-0.284208 0.80095,-0.284208 h 6.1234 q 2.91959,0 4.49565,1.3693662 1.57606,1.3693666 1.57606,3.9014016 0,1.601901 -0.72343,2.790407 -0.69761,1.16267 -2.06697,1.78276 -1.36937,0.594253 -3.28131,0.594253 l 0.25837,-0.335882 h 0.51674 q 1.00765,0 1.75692,0.516742 0.74928,0.516742 1.36937,1.653574 l 2.48036,4.624841 q 0.2067,0.361719 0.18086,0.723439 0,0.335882 -0.23253,0.568416 -0.23254,0.206697 -0.67177,0.206697 -0.43923,0 -0.72344,-0.206697 -0.28421,-0.206697 -0.4909,-0.594253 l -2.81625,-5.219094 q -0.59425,-1.110996 -1.36936,-1.472715 -0.77512,-0.387557 -2.04113,-0.387557 h -3.30715 v 6.76932 q 0,0.516742 -0.25837,0.826788 -0.25837,0.284208 -0.80095,0.284208 z m 1.05932,-9.559727 h 4.77986 q 2.11864,0 3.2038,-0.878461 1.08516,-0.904299 1.08516,-2.687059 0,-1.731085 -1.08516,-2.609547 -1.08516,-0.904298 -3.2038,-0.904298 h -4.77986 z m 22.68501,9.611401 q -2.53203,0 -4.41814,-1.136832 -1.86027,-1.16267 -2.89376,-3.255475 -1.00764,-2.092805 -1.00764,-4.960723 0,-2.170316 0.56841,-3.875565 0.59426,-1.731085 1.67942,-2.919592 1.08515,-1.2143437 2.60954,-1.8602712 1.55023,-0.6717645 3.46217,-0.6717645 2.58371,0 4.44398,1.1368323 1.88611,1.1368324 2.89376,3.2296374 1.03348,2.066968 1.03348,4.934886 0,2.170316 -0.59425,3.901402 -0.59425,1.731086 -1.67941,2.945429 -1.08516,1.214344 -2.63539,1.886108 -1.52438,0.645928 -3.46217,0.645928 z m 0,-1.886108 q 1.96362,0 3.30715,-0.878462 1.36937,-0.878461 2.09281,-2.557873 0.72344,-1.679411 0.72344,-4.030587 0,-3.539683 -1.6019,-5.477465 -1.57607,-1.96362 -4.5215,-1.96362 -1.91194,0 -3.28131,0.878462 -1.34353,0.878461 -2.06697,2.557873 -0.72343,1.653574 -0.72343,4.00475 0,3.513846 1.6019,5.503302 1.6019,1.96362 4.46981,1.96362 z"
     id="text2"
     style="font-size:25.8371px;font-family:Nunito;-inkscape-font-specification:'Nunito, @wght=400';font-variation-settings:'wght' 400;fill:#01081c;stroke:#ffffff;stroke-width:0;stroke-linecap:round;paint-order:stroke markers fill"
     aria-label="SiGERO" />
  <sodipodi:namedview
     id="namedview19"
     pagecolor="#ffffff"
     bordercolor="#000000"
     borderopacity="0.25"
     inkscape:showpageshadow="2"
     inkscape:pageopacity="0.0"
     inkscape:pagecheckerboard="0"
     inkscape:deskcolor="#d1d1d1"
     inkscape:zoom="4"
     inkscape:cx="63.625"
     inkscape:cy="-29.125"
     inkscape:window-width="1920"
     inkscape:window-height="1051"
     inkscape:window-x="-9"
     inkscape:window-y="-9"
     inkscape:window-maximized="1"
     inkscape:current-layer="svg19" />
  <defs
     id="defs19">
    <filter
       id="filter0_d_1624_24907"
       x="7.42383"
       y="6.2373"
       width="5.36841"
       height="20.5263"
       filterUnits="userSpaceOnUse"
       color-interpolation-filters="sRGB">
      <feFlood
         flood-opacity="0"
         result="BackgroundImageFix"
         id="feFlood13" />
      <feColorMatrix
         in="SourceAlpha"
         type="matrix"
         values="0 0 0 0 0 0 0 0 0 0 0 0 0 0 0 0 0 0 127 0"
         result="hardAlpha"
         id="feColorMatrix13" />
      <feOffset
         dy="0.5"
         id="feOffset13" />
      <feGaussianBlur
         stdDeviation="0.5"
         id="feGaussianBlur13" />
      <feComposite
         in2="hardAlpha"
         operator="out"
         id="feComposite13" />
      <feColorMatrix
         type="matrix"
         values="0 0 0 0 0 0 0 0 0 0 0 0 0 0 0 0 0 0 0.12 0"
         id="feColorMatrix14" />
      <feBlend
         mode="normal"
         in2="BackgroundImageFix"
         result="effect1_dropShadow_1624_24907"
         id="feBlend14" />
      <feBlend
         mode="normal"
         in="SourceGraphic"
         in2="effect1_dropShadow_1624_24907"
         result="shape"
         id="feBlend15" />
    </filter>
    <filter
       id="filter1_d_1624_24907"
       x="13.7422"
       y="12.9727"
       width="5.36841"
       height="13.7895"
       filterUnits="userSpaceOnUse"
       color-interpolation-filters="sRGB">
      <feFlood
         flood-opacity="0"
         result="BackgroundImageFix"
         id="feFlood15" />
      <feColorMatrix
         in="SourceAlpha"
         type="matrix"
         values="0 0 0 0 0 0 0 0 0 0 0 0 0 0 0 0 0 0 127 0"
         result="hardAlpha"
         id="feColorMatrix15" />
      <feOffset
         dy="0.5"
         id="feOffset15" />
      <feGaussianBlur
         stdDeviation="0.5"
         id="feGaussianBlur15" />
      <feComposite
         in2="hardAlpha"
         operator="out"
         id="feComposite15" />
      <feColorMatrix
         type="matrix"
         values="0 0 0 0 0 0 0 0 0 0 0 0 0 0 0 0 0 0 0.12 0"
         id="feColorMatrix16" />
      <feBlend
         mode="normal"
         in2="BackgroundImageFix"
         result="effect1_dropShadow_1624_24907"
         id="feBlend16" />
      <feBlend
         mode="normal"
         in="SourceGraphic"
         in2="effect1_dropShadow_1624_24907"
         result="shape"
         id="feBlend17" />
    </filter>
    <filter
       id="filter2_d_1624_24907"
       x="20.0547"
       y="8.76172"
       width="5.36841"
       height="18"
       filterUnits="userSpaceOnUse"
       color-interpolation-filters="sRGB">
      <feFlood
         flood-opacity="0"
         result="BackgroundImageFix"
         id="feFlood17" />
      <feColorMatrix
         in="SourceAlpha"
         type="matrix"
         values="0 0 0 0 0 0 0 0 0 0 0 0 0 0 0 0 0 0 127 0"
         result="hardAlpha"
         id="feColorMatrix17" />
      <feOffset
         dy="0.5"
         id="feOffset17" />
      <feGaussianBlur
         stdDeviation="0.5"
         id="feGaussianBlur17" />
      <feComposite
         in2="hardAlpha"
         operator="out"
         id="feComposite17" />
      <feColorMatrix
         type="matrix"
         values="0 0 0 0 0 0 0 0 0 0 0 0 0 0 0 0 0 0 0.12 0"
         id="feColorMatrix18" />
      <feBlend
         mode="normal"
         in2="BackgroundImageFix"
         result="effect1_dropShadow_1624_24907"
         id="feBlend18" />
      <feBlend
         mode="normal"
         in="SourceGraphic"
         in2="effect1_dropShadow_1624_24907"
         result="shape"
         id="feBlend19" />
    </filter>
  </defs>
  <g
     id="g19"
     transform="matrix(1.0744342,0,0,1.0744342,38.625748,-0.62758047)">
    <path
       style="fill:#40b9e8;fill-opacity:1"
       d="M -26.751158,15.065683 V 9.4658965 h 5.710673 5.710674 v 5.5997865 5.599787 h -5.710674 -5.710673 z"
       id="path23" />
    <path
       style="mix-blend-mode:normal;fill:#0191ce;fill-opacity:1"
       d="M -13.797557,19.919504 V 9.4658965 h 3.9768064 3.9768061 V 19.919504 30.373111 H -9.8207506 -13.797557 Z M -5.8532293,4.1979304 c 4.837e-4,-0.011743 0.00287,-0.014132 0.00609,-0.00609 0.00291,0.00728 0.00255,0.015972 -7.958e-4,0.019321 -0.00335,0.00335 -0.00573,-0.0026 -0.00529,-0.013231 z"
       id="path21" />
    <path
       style="fill:#0070ba;fill-opacity:1"
       d="m -35.939662,13.533428 c 0,-7.1189364 0.0011,-10.0297192 0.0025,-6.468406 0.0014,3.561313 0.0014,9.385898 0,12.943521 -0.0014,3.557624 -0.0025,0.643822 -0.0025,-6.475115 z m 9.188504,-9.2640932 V 0.59494739 h 8.725066 c 9.451592,0 8.817171,-0.003534 9.1356979,0.0508969 1.1114657,0.1899324 2.0956775,0.90924921 2.622405,1.91659951 0.2159622,0.413021 0.3417186,0.831721 0.4051806,1.3490289 0.00844,0.068809 0.012894,0.6498086 0.015818,2.0640078 l 0.00407,1.9682418 H -16.297039 -26.751158 Z"
       id="path20" />
    <path
       style="fill:#014990;fill-opacity:1"
       d="m -32.204776,30.366512 c -0.988607,-0.05115 -1.859193,-0.425885 -2.549102,-1.09723 -0.404649,-0.39376 -0.700494,-0.833094 -0.906227,-1.345763 -0.121199,-0.302018 -0.187575,-0.556363 -0.251626,-0.964211 -0.01611,-0.102559 -0.01736,-0.927501 -0.02007,-13.236868 l -0.0029,-13.12749261 h 3.891163 3.891163 V 11.587868 22.580788 h 6.411277 6.411277 v 3.896162 3.896161 l -8.409761,-0.0019 c -4.625368,-10e-4 -8.43471,-0.0032 -8.465204,-0.0047 z"
       id="path19" />
  </g>
</svg>
